<?xml version="1.0" encoding="UTF-8" standalone="no"?>
<!-- Created with Inkscape (http://www.inkscape.org/) -->

<svg
   xmlns:dc="http://purl.org/dc/elements/1.1/"
   xmlns:cc="http://creativecommons.org/ns#"
   xmlns:rdf="http://www.w3.org/1999/02/22-rdf-syntax-ns#"
   xmlns:svg="http://www.w3.org/2000/svg"
   xmlns="http://www.w3.org/2000/svg"
   xmlns:sodipodi="http://sodipodi.sourceforge.net/DTD/sodipodi-0.dtd"
   xmlns:inkscape="http://www.inkscape.org/namespaces/inkscape"
   width="1122.5197"
   height="793.70081"
   viewBox="0 0 296.99998 210.00001"
   version="1.1"
   id="svg3801"
   inkscape:version="0.92.5 (2060ec1f9f, 2020-04-08)"
   sodipodi:docname="simplegrid.svg">
  <defs
     id="defs3795" />
  <sodipodi:namedview
     id="base"
     pagecolor="#ffffff"
     bordercolor="#666666"
     borderopacity="1.0"
     inkscape:pageopacity="0.0"
     inkscape:pageshadow="2"
     inkscape:zoom="1"
     inkscape:cx="400"
     inkscape:cy="560"
     inkscape:document-units="mm"
     inkscape:current-layer="layer1"
     showgrid="false"
     units="px"
     inkscape:window-width="2560"
     inkscape:window-height="1376"
     inkscape:window-x="0"
     inkscape:window-y="27"
     inkscape:window-maximized="1" />
  <metadata
     id="metadata3798">
    <rdf:RDF>
      <cc:Work
         rdf:about="">
        <dc:format>image/svg+xml</dc:format>
        <dc:type
           rdf:resource="http://purl.org/dc/dcmitype/StillImage" />
        <dc:title></dc:title>
      </cc:Work>
    </rdf:RDF>
  </metadata>
  <g
     inkscape:label="Layer 1"
     inkscape:groupmode="layer"
     id="layer1"
     transform="translate(0,-86.999992)">
    <g
       transform="matrix(0.26458333,0,0,0.26458333,51.163983,126.81647)"
       id="layer1-3">
      <path
         inkscape:connector-curvature="0"
         d="m 40,25 c 0,8.284271 -6.715729,15 -15,15 -8.284271,0 -15,-6.715729 -15,-15 0,-8.284271 6.715729,-15 15,-15 8.284271,0 15,6.715729 15,15 z"
         style="opacity:1;fill:none;fill-opacity:1;stroke:#000000;stroke-width:1;stroke-linecap:square;stroke-miterlimit:4;stroke-dasharray:none;stroke-dashoffset:0;stroke-opacity:1"
         id="path1319" />
      <path
         inkscape:connector-curvature="0"
         d="M 25,10 V 3"
         style="fill:none;fill-opacity:0.75;fill-rule:evenodd;stroke:#000000;stroke-width:1px;stroke-linecap:butt;stroke-linejoin:miter;stroke-opacity:1"
         id="path2194" />
      <path
         inkscape:connector-curvature="0"
         d="m 25,40 v 7"
         style="fill:none;fill-opacity:0.75;fill-rule:evenodd;stroke:#000000;stroke-width:1px;stroke-linecap:butt;stroke-linejoin:miter;stroke-opacity:1"
         id="path2196" />
      <path
         inkscape:connector-curvature="0"
         d="m 16,25.000005 c 0,0 1.5,-5.000001 4.5,-5.000001 3,0 6,10.000002 9,10.000002 3,0 4.5,-5.000001 4.5,-5.000001"
         style="fill:none;fill-opacity:0.75;fill-rule:evenodd;stroke:#000000;stroke-width:1.00000012px;stroke-linecap:butt;stroke-linejoin:miter;stroke-opacity:1"
         id="path4056" />
    </g>
    <rect
       id="rect3830"
       width="33.200298"
       height="3.2503421"
       x="46.552673"
       y="139.25189"
       style="stroke-width:0.33890203" />
    <path
       style="fill:none;stroke:#000000;stroke-width:0.26458332px;stroke-linecap:butt;stroke-linejoin:miter;stroke-opacity:1"
       d="m 75.689732,139.10044 c -0.18899,-10.86681 -0.18899,-10.77232 -0.18899,-10.77232 l 1.322917,3.02381 h -2.456844 l 1.133927,-3.1183 z"
       id="path3832"
       inkscape:connector-curvature="0" />
    <path
       style="stroke-width:0.35714287"
       d="m 285.0282,166.49247 c 0.0171,-0.41605 0.10176,-0.50068 0.21577,-0.21577 0.10317,0.25781 0.0905,0.56585 -0.0282,0.68452 -0.11867,0.11868 -0.20308,-0.0923 -0.18757,-0.46875 z"
       id="path3834"
       inkscape:connector-curvature="0"
       transform="matrix(0.26458333,0,0,0.26458333,0,86.999992)" />
    <path
       style="stroke-width:0.35714287"
       d="m 282.34496,166.25438 c 0.13763,-0.44197 0.68546,-1.99292 1.21741,-3.44656 l 0.96717,-2.64299 0.23269,2.46441 c 0.42458,4.49668 0.44322,4.42871 -1.21487,4.42871 -1.34249,0 -1.43366,-0.0609 -1.2024,-0.80357 z"
       id="path3836"
       inkscape:connector-curvature="0"
       transform="matrix(0.26458333,0,0,0.26458333,0,86.999992)" />
    <path
       style="stroke-width:0.35714287"
       d="m 286.07143,163.427 c 0,-1.99703 0.0591,-3.56399 0.13126,-3.48215 0.16281,0.18458 3.08302,6.79562 3.08302,6.97963 0,0.0734 -0.72321,0.13347 -1.60714,0.13347 h -1.60714 z"
       id="path3838"
       inkscape:connector-curvature="0"
       transform="matrix(0.26458333,0,0,0.26458333,0,86.999992)" />
    <path
       style="stroke-width:0.35714287"
       d="m 285.59284,188.07154 c -0.12963,-4.74609 -0.2357,-11.17466 -0.2357,-14.28571 v -5.65645 h -2.32143 c -1.27678,0 -2.31898,-0.12054 -2.31598,-0.26786 0.0148,-0.72867 4.22582,-11.67828 4.53028,-11.77977 0.30179,-0.10059 5.46638,11.03199 5.46483,11.77977 -3e-4,0.14732 -1.07112,0.26786 -2.3796,0.26786 h -2.37904 l 0.22303,14.28571 c 0.12266,7.85714 0.0939,14.28572 -0.0638,14.28572 -0.15777,0 -0.39292,-3.88317 -0.52255,-8.62927 z m -0.41353,-21.37073 c 0.036,-0.29465 -0.0298,-2.30358 -0.14623,-4.46429 l -0.21165,-3.92857 -1.51786,4.14677 c -0.83482,2.28073 -1.51786,4.33864 -1.51786,4.57314 0,0.66819 3.31102,0.34909 3.3936,-0.32705 z m 4.46355,0.40879 c 0,-0.4778 -3.20428,-7.6845 -3.5868,-8.06702 -0.2176,-0.2176 -0.34177,1.15473 -0.34177,3.77727 0,2.26548 0.10714,4.22619 0.23809,4.35715 0.35101,0.351 3.69048,0.29002 3.69048,-0.0674 z"
       id="path3840"
       inkscape:connector-curvature="0"
       transform="matrix(0.26458333,0,0,0.26458333,0,86.999992)" />
    <path
       style="stroke-width:0.35714287"
       d="m 285.59268,188.60737 c -0.12954,-4.45138 -0.23554,-10.87995 -0.23554,-14.28571 v -6.19228 h -2.32143 c -1.27678,0 -2.32142,-0.13656 -2.32142,-0.30347 0,-0.7122 4.22061,-11.63912 4.53636,-11.74437 0.30192,-0.10064 5.48701,11.06576 5.47001,11.77998 -0.004,0.14732 -1.07714,0.26786 -2.38586,0.26786 h -2.37949 l 0.23272,14.28571 c 0.128,7.85714 0.0994,14.28572 -0.0635,14.28572 -0.16295,0 -0.40226,-3.64205 -0.53181,-8.09344 z m -0.67189,-22.08514 c 0.0965,-0.65301 0.0722,-0.66067 -0.28253,-0.0893 -0.41823,0.67363 -0.9801,0.78248 -1.69532,0.32844 -0.35263,-0.22386 -0.29387,-0.74396 0.27172,-2.40525 1.1217,-3.29468 1.20395,-3.35442 1.44307,-1.04819 0.19912,1.92038 0.22843,1.77516 0.28223,-1.39881 0.033,-1.94792 -0.0128,-3.46881 -0.10188,-3.37975 -0.23108,0.23108 -3.05237,8.1604 -3.05237,8.57878 0,0.19139 0.68165,0.29857 1.51478,0.23817 1.19608,-0.0867 1.53698,-0.2601 1.6203,-0.82411 z m 4.72207,0.58177 c 0,-0.4602 -3.21867,-7.66823 -3.60086,-8.06391 -0.19943,-0.20647 -0.30721,1.26146 -0.27534,3.75 0.0496,3.87251 0.065,3.95242 0.29022,1.5074 0.13081,-1.42003 0.32351,-2.66755 0.42822,-2.77226 0.1047,-0.1047 0.69916,0.96155 1.32102,2.36945 0.62186,1.40791 1.07909,2.61139 1.01607,2.67441 -0.063,0.063 -0.7479,0.26301 -1.52196,0.44442 l -1.40737,0.32983 1.875,0.0359 c 1.03125,0.0197 1.875,-0.10412 1.875,-0.27522 z"
       id="path3842"
       inkscape:connector-curvature="0"
       transform="matrix(0.26458333,0,0,0.26458333,0,86.999992)" />
    <path
       style="stroke-width:0.35714287"
       d="m 285.59334,189.46866 c -0.12888,-3.97768 -0.23474,-10.40625 -0.23526,-14.28571 l -9.4e-4,-7.05357 h -2.32143 c -1.62987,0 -2.31538,-0.13299 -2.30113,-0.44643 0.0407,-0.89503 4.15106,-11.47974 4.50356,-11.59724 0.32402,-0.10801 5.47615,10.91691 5.47615,11.71829 0,0.17896 -1.07068,0.32538 -2.37929,0.32538 h -2.37929 l 0.24114,14.28571 c 0.13263,7.85714 0.10382,14.28572 -0.064,14.28572 -0.16784,0 -0.41062,-3.25447 -0.53949,-7.23215 z m -1.15826,-22.27035 c 0.3107,-0.11923 0.56492,-0.39244 0.56492,-0.60714 0,-0.26116 -0.14185,-0.24851 -0.42857,0.0382 -0.50123,0.50123 -1.58651,0.56711 -1.86696,0.11333 -0.17018,-0.27535 0.78139,-3.52303 1.47727,-5.0419 0.1477,-0.32238 0.33716,0.1754 0.47574,1.25 0.19981,1.54931 0.23629,1.38382 0.27555,-1.25 0.0301,-2.02001 -0.0658,-2.84579 -0.28669,-2.46806 -0.41301,0.7063 -2.86063,7.43817 -2.86063,7.8678 0,0.35797 1.79835,0.42432 2.64937,0.0978 z m 4.97937,-0.0597 c 0.21953,-0.35522 -3.04709,-7.93778 -3.41966,-7.93778 -0.15428,0 -0.25788,1.40625 -0.23022,3.125 0.0438,2.72299 0.0793,2.88661 0.27571,1.27191 0.12398,-1.0192 0.31928,-1.94695 0.43399,-2.06166 0.11472,-0.11472 0.7217,0.93901 1.34886,2.34162 0.62715,1.4026 1.06024,2.63023 0.96241,2.72806 -0.0978,0.0978 -0.70834,0.3035 -1.3567,0.45705 l -1.17884,0.27919 1.49678,0.0366 c 0.82323,0.0201 1.57368,-0.0879 1.66767,-0.23994 z"
       id="path3844"
       inkscape:connector-curvature="0"
       transform="matrix(0.26458333,0,0,0.26458333,0,86.999992)" />
    <path
       style="stroke-width:0.35714287"
       d="m 285.59207,190.21498 c -0.12921,-3.5672 -0.23493,-9.99577 -0.23493,-14.28571 v -7.79989 h -2.32143 c -1.62565,0 -2.31771,-0.13381 -2.30904,-0.44643 0.0241,-0.86923 4.14046,-11.47357 4.50032,-11.59352 0.3353,-0.11177 5.4873,10.85362 5.4873,11.67901 0,0.207 -1.01377,0.36094 -2.37695,0.36094 h -2.37695 l 0.25415,14.28571 c 0.14938,8.3967 0.12188,14.28572 -0.0667,14.28572 -0.17646,0 -0.42655,-2.91863 -0.55577,-6.48583 z m -2.2885,-23.16816 c -0.97893,-0.39348 -0.97928,-0.4069 -0.0748,-2.84601 1.1641,-3.1393 1.16856,-3.14432 1.42841,-1.60715 0.2068,1.22341 0.24876,1.0721 0.29216,-1.05357 0.0315,-1.54163 -0.0757,-2.35358 -0.28295,-2.14286 -0.51101,0.51969 -2.88078,7.37158 -2.66837,7.71527 0.10286,0.16643 0.61949,0.2924 1.14808,0.27995 0.93107,-0.0219 0.93599,-0.0327 0.15749,-0.34563 z m 6.12306,0.0721 c 0.19787,-0.32016 -2.75296,-7.10154 -3.34989,-7.69848 -0.24518,-0.24517 -0.34917,0.49845 -0.32138,2.29826 0.0336,2.17688 0.0884,2.41646 0.30156,1.31749 0.14327,-0.73878 0.34271,-1.42546 0.44321,-1.52595 0.15532,-0.15532 2.42844,4.52954 2.42844,5.00497 0,0.0909 -0.52232,0.31603 -1.16071,0.50036 l -1.16072,0.33514 1.31821,0.0322 c 0.72502,0.0177 1.40059,-0.10108 1.50128,-0.264 z M 285,166.70081 c 0,-0.19643 -0.0709,-0.35715 -0.15749,-0.35715 -0.0866,0 -0.25682,0.16072 -0.37822,0.35715 -0.1214,0.19642 -0.0505,0.35714 0.15749,0.35714 0.20802,0 0.37822,-0.16072 0.37822,-0.35714 z"
       id="path3846"
       inkscape:connector-curvature="0"
       transform="matrix(0.26458333,0,0,0.26458333,0,86.999992)" />
    <path
       style="stroke-width:0.35714287"
       d=""
       id="path3848"
       inkscape:connector-curvature="0"
       transform="matrix(0.26458333,0,0,0.26458333,0,86.999992)" />
    <path
       style="stroke-width:0.35714287"
       d=""
       id="path3850"
       inkscape:connector-curvature="0"
       transform="matrix(0.26458333,0,0,0.26458333,0,86.999992)" />
    <path
       style="stroke-width:0.35714287"
       d="m 285.5918,190.75091 c -0.12906,-3.27244 -0.23466,-9.70102 -0.23466,-14.28572 v -8.33581 h -2.32143 c -1.37102,0 -2.32142,-0.15227 -2.32142,-0.37192 0,-0.57192 3.96369,-11.19056 4.31827,-11.56856 0.17197,-0.18333 0.40219,-0.24382 0.5116,-0.13441 0.32678,0.32678 5.17013,11.28218 5.17013,11.69457 0,0.23079 -0.93191,0.38032 -2.37036,0.38032 h -2.37035 l 0.26311,14.28571 c 0.16379,8.89276 0.13602,14.28572 -0.0736,14.28572 -0.18794,0 -0.44034,-2.62851 -0.57133,-5.9499 z m -2.53515,-23.81206 c -0.58507,-0.42782 -0.60444,-0.61847 -0.19046,-1.875 0.25346,-0.76932 0.70596,-1.96126 1.00555,-2.64876 l 0.54472,-1.25 0.24951,1.07143 c 0.19381,0.83222 0.25895,0.59699 0.29177,-1.05357 0.0258,-1.29608 -0.0855,-1.99265 -0.28525,-1.78572 -0.4997,0.51769 -2.86806,7.56038 -2.62439,7.80406 0.11759,0.11759 0.53916,0.2138 0.93683,0.2138 0.69007,0 0.69334,-0.0217 0.0717,-0.47624 z m 6.09166,-0.038 c 0.22741,-0.59262 -2.63689,-7.34292 -3.11577,-7.34292 -0.17504,0 -0.29637,0.92411 -0.26962,2.05357 0.0267,1.12946 0.12072,1.65179 0.20881,1.16071 0.30175,-1.68197 0.69778,-1.45126 1.86841,1.08844 1.17918,2.55827 1.15842,2.98226 -0.16157,3.29975 -0.53429,0.12852 -0.46397,0.18225 0.27907,0.21324 0.56638,0.0236 1.07817,-0.1796 1.19067,-0.47279 z M 285,166.70081 c 0,-0.19643 -0.0709,-0.35715 -0.15749,-0.35715 -0.0866,0 -0.25682,0.16072 -0.37822,0.35715 -0.1214,0.19642 -0.0505,0.35714 0.15749,0.35714 0.20802,0 0.37822,-0.16072 0.37822,-0.35714 z"
       id="path3852"
       inkscape:connector-curvature="0"
       transform="matrix(0.26458333,0,0,0.26458333,0,86.999992)" />
    <path
       style="stroke-width:0.35714287"
       d="m 285.59148,191.28688 c -0.12889,-2.97766 -0.23434,-9.40623 -0.23434,-14.28572 v -8.87178 h -2.36014 -2.36015 l 0.24401,-0.98215 c 0.38489,-1.54914 3.81262,-10.58838 4.15546,-10.95833 0.16991,-0.18333 0.39843,-0.24382 0.50784,-0.13441 0.32678,0.32678 5.17013,11.28218 5.17013,11.69457 0,0.23066 -0.92951,0.38032 -2.36214,0.38032 h -2.36213 l 0.26442,14.28571 c 0.16983,9.17553 0.14046,14.28572 -0.0821,14.28572 -0.19839,0 -0.4467,-2.31436 -0.58085,-5.41393 z m -2.53483,-24.34803 c -0.58507,-0.42782 -0.60444,-0.61847 -0.19046,-1.875 0.25346,-0.76932 0.70285,-1.96126 0.99865,-2.64876 0.5338,-1.24066 0.53978,-1.24333 0.80089,-0.35714 0.20635,0.70034 0.27075,0.52707 0.29867,-0.80357 0.0196,-0.93304 -0.0895,-1.69643 -0.24236,-1.69643 -0.32996,0 -2.59146,6.32902 -2.5842,7.23214 0.003,0.40355 0.28229,0.625 0.78756,0.625 0.73969,0 0.74688,-0.0261 0.13125,-0.47624 z m 5.84927,0.14065 c 0.4151,-0.26266 0.43179,-0.48324 0.0874,-1.15524 -0.42359,-0.82656 -0.42466,-0.82668 -0.2204,-0.0247 0.1567,0.61524 0.009,0.88449 -0.62311,1.13807 -0.45561,0.1827 -0.58731,0.3399 -0.29267,0.34934 0.29465,0.009 0.7666,-0.12892 1.04878,-0.30748 z M 285,166.70081 c 0,-0.19643 -0.0709,-0.35715 -0.15749,-0.35715 -0.0866,0 -0.25682,0.16072 -0.37822,0.35715 -0.1214,0.19642 -0.0505,0.35714 0.15749,0.35714 0.20802,0 0.37822,-0.16072 0.37822,-0.35714 z m 2.45501,-4.57818 c -0.61853,-1.40039 -1.26324,-2.46049 -1.43267,-2.35577 -0.16943,0.10471 -0.29787,0.86394 -0.28542,1.68717 0.0208,1.37601 0.0524,1.42474 0.39165,0.60392 0.36056,-0.8724 0.39027,-0.85011 1.29652,0.97251 1.3335,2.68193 1.35309,2.08785 0.0299,-0.90783 z"
       id="path3854"
       inkscape:connector-curvature="0"
       transform="matrix(0.26458333,0,0,0.26458333,0,86.999992)" />
    <path
       style="stroke-width:0.35714287"
       d="m 285.59108,191.82291 c -0.12866,-2.68284 -0.23394,-9.11142 -0.23394,-14.28572 v -9.40781 h -2.32143 c -1.65994,0 -2.32142,-0.13156 -2.32142,-0.46168 0,-0.85308 4.1376,-11.45324 4.52039,-11.58083 0.35291,-0.11764 4.89684,9.41205 5.35139,11.22314 0.19912,0.79333 0.12961,0.81937 -2.18733,0.81937 h -2.39297 l 0.26197,14.28571 c 0.17115,9.33305 0.13982,14.28572 -0.0904,14.28572 -0.20308,0 -0.45145,-2.06643 -0.58629,-4.8779 z m -2.7232,-24.9306 c -0.34379,-0.41424 -0.3059,-0.91479 0.18247,-2.41072 0.339,-1.03836 0.78087,-2.20577 0.98195,-2.59425 0.36421,-0.70366 0.36662,-0.70366 0.64154,0 0.19535,0.49999 0.27997,0.23685 0.2897,-0.90082 0.0117,-1.36927 -0.0531,-1.51923 -0.43798,-1.01321 -0.73014,0.95999 -2.47955,6.31714 -2.25445,6.90372 0.11356,0.29593 0.39191,0.53806 0.61855,0.53806 0.30143,0 0.29558,-0.14038 -0.0218,-0.52278 z m 6.05035,0.17959 c 0.28895,-0.18274 0.44941,-0.40821 0.35658,-0.50105 -0.0928,-0.0928 -0.4805,0.0591 -0.86149,0.33773 -0.76194,0.55714 -0.33579,0.69499 0.50491,0.16332 z m -1.56202,-5.14813 c -1.0254,-2.31862 -1.64192,-2.57786 -1.64192,-0.69042 0,1.17206 0.0517,1.24754 0.46627,0.68059 0.42524,-0.58155 0.52446,-0.50865 1.12731,0.82824 0.36357,0.80625 0.72306,1.40389 0.79886,1.32809 0.0758,-0.0758 -0.26194,-1.04172 -0.75052,-2.1465 z"
       id="path3856"
       inkscape:connector-curvature="0"
       transform="matrix(0.26458333,0,0,0.26458333,0,86.999992)" />
    <path
       style="stroke-width:0.35714287"
       d="m 285.71429,161.35774 c 0,-0.4006 0.15122,-0.72836 0.33606,-0.72836 0.59133,0 0.67616,0.52114 0.16216,0.99622 -0.41388,0.38255 -0.49822,0.3372 -0.49822,-0.26786 z"
       id="path3858"
       inkscape:connector-curvature="0"
       transform="matrix(0.26458333,0,0,0.26458333,0,86.999992)" />
    <path
       style="stroke-width:0.35714287"
       d="m 285.59228,192.14723 c -0.12773,-2.50446 -0.23289,-8.93303 -0.23369,-14.28571 l -10e-4,-9.73214 h -2.32143 c -1.98071,0 -2.31837,-0.0917 -2.30062,-0.625 0.0329,-0.987 4.09435,-11.28244 4.50484,-11.41927 0.35566,-0.11855 4.87197,9.33563 5.32838,11.15414 0.22141,0.88214 0.20203,0.89013 -2.16023,0.89013 h -2.38364 l 0.2566,14.28571 c 0.16957,9.44136 0.13568,14.28572 -0.1,14.28572 -0.20652,0 -0.45427,-1.91604 -0.58879,-4.55358 z m -2.80788,-25.43018 c -0.49277,-0.78906 -0.83973,-0.69071 -0.5183,0.14692 0.11631,0.30312 0.3786,0.55112 0.58286,0.55112 0.23506,0 0.21136,-0.25623 -0.0646,-0.69804 z m 6.50131,-0.0982 c 0,-0.20903 -0.22693,-0.17432 -0.53571,0.0819 -0.29464,0.24453 -0.53571,0.50023 -0.53571,0.56823 0,0.068 0.24107,0.0311 0.53571,-0.0819 0.29464,-0.11306 0.53571,-0.36877 0.53571,-0.56824 z m -5.74485,-3.66805 c 0.0108,-0.19643 -0.13616,-0.11608 -0.32657,0.17857 -0.19042,0.29464 -0.33737,0.77678 -0.32658,1.07143 0.0207,0.56566 0.61596,-0.5735 0.65315,-1.25 z m 3.78141,-1.03527 c -0.4957,-1.12086 -1.06028,-1.93965 -1.25463,-1.81954 -0.19434,0.12011 -0.35335,0.3791 -0.35335,0.57553 0,0.19643 0.13596,0.27311 0.30214,0.17041 0.16618,-0.1027 0.67557,0.61056 1.13199,1.58503 1.14124,2.43659 1.28742,2.00655 0.17385,-0.51143 z m -2.64316,-0.1683 c 0.21233,0.33518 0.31167,0.1237 0.31542,-0.67143 0.007,-1.47617 -0.52253,-1.49465 -1.03102,-0.036 -0.49192,1.41113 -0.48514,1.75142 0.0177,0.886 0.31329,-0.53924 0.44769,-0.57363 0.69796,-0.17857 z"
       id="path3860"
       inkscape:connector-curvature="0"
       transform="matrix(0.26458333,0,0,0.26458333,0,86.999992)" />
    <path
       style="stroke-width:0.35714287"
       d="m 285.59191,192.68295 c -0.12734,-2.20982 -0.23225,-8.63839 -0.23314,-14.28572 l -0.002,-10.26785 h -2.32143 c -1.88049,0 -2.32142,-0.1075 -2.32142,-0.56594 0,-0.68674 3.88016,-10.90476 4.31933,-11.37454 0.17139,-0.18333 0.40456,-0.24039 0.51816,-0.12679 0.35024,0.35024 4.76582,10.17821 5.00994,11.15088 0.22962,0.91488 0.2261,0.91639 -2.14285,0.91639 h -2.37285 l 0.24829,14.28571 c 0.16537,9.51496 0.12821,14.28572 -0.1113,14.28572 -0.20633,0 -0.45826,-1.71244 -0.5911,-4.01786 z m -3.04831,-26.22321 c -0.31127,-0.53528 -0.38096,-0.55071 -0.38988,-0.0863 -0.0115,0.60146 0.36399,1.143 0.61711,0.88989 0.0835,-0.0835 -0.0188,-0.44509 -0.22723,-0.80357 z m 4.5003,-4.9575 c -0.52362,-1.0303 -0.96248,-1.5351 -1.1171,-1.28492 -0.14007,0.22663 -0.10888,0.41206 0.0693,0.41206 0.17819,0 0.61461,0.64449 0.96982,1.43221 0.35521,0.78772 0.71211,1.36593 0.79312,1.28493 0.081,-0.081 -0.24081,-0.91093 -0.71515,-1.84428 z m -2.36479,0.245 c 0.21233,0.33518 0.31167,0.1237 0.31542,-0.67143 0.007,-1.47617 -0.52253,-1.49465 -1.03102,-0.036 -0.49192,1.41113 -0.48514,1.75142 0.0177,0.886 0.31329,-0.53924 0.44769,-0.57363 0.69796,-0.17857 z"
       id="path3862"
       inkscape:connector-curvature="0"
       transform="matrix(0.26458333,0,0,0.26458333,0,86.999992)" />
    <path
       style="stroke-width:0.35714287"
       d="m 285.58999,192.89525 c -0.12807,-2.09306 -0.23285,-8.52163 -0.23285,-14.28572 v -10.48015 h -2.32143 c -1.8362,0 -2.32142,-0.11316 -2.32142,-0.54139 0,-0.69773 3.87569,-10.95927 4.30533,-11.39909 0.17909,-0.18333 0.41856,-0.24039 0.53216,-0.12679 0.35024,0.35024 4.76582,10.17821 5.00994,11.15088 0.22956,0.91465 0.22552,0.91639 -2.13486,0.91639 H 286.062 l 0.24115,14.28571 c 0.16103,9.53959 0.1213,14.28572 -0.11959,14.28572 -0.20574,0 -0.46077,-1.63508 -0.59357,-3.80556 z m -2.73285,-25.9948 c 0,-0.0866 -0.16071,-0.25682 -0.35714,-0.37822 -0.19643,-0.1214 -0.35714,-0.0505 -0.35714,0.1575 0,0.20802 0.16071,0.37822 0.35714,0.37822 0.19643,0 0.35714,-0.0709 0.35714,-0.1575 z m 4.28572,-5.19964 c -0.40084,-0.78572 -0.80916,-1.42858 -0.90738,-1.42858 -0.0982,0 0.14939,0.64286 0.55023,1.42858 0.40085,0.78571 0.80916,1.42857 0.90738,1.42857 0.0982,0 -0.14939,-0.64286 -0.55023,-1.42857 z m -2.47805,-0.16501 c 0.18435,0.11394 0.33519,-0.11427 0.33519,-0.50713 0,-0.93422 -0.58235,-1.28186 -0.81173,-0.48456 -0.0983,0.34154 -0.28939,0.94241 -0.42472,1.33527 -0.22269,0.64646 -0.2075,0.65422 0.16001,0.0818 0.22333,-0.34788 0.55689,-0.53929 0.74125,-0.42535 z"
       id="path3864"
       inkscape:connector-curvature="0"
       transform="matrix(0.26458333,0,0,0.26458333,0,86.999992)" />
    <text
       xml:space="preserve"
       style="font-style:normal;font-weight:normal;font-size:2.82222222px;line-height:1.25;font-family:sans-serif;letter-spacing:0px;word-spacing:0px;fill:#000000;fill-opacity:1;stroke:none;stroke-width:0.26458332;"
       x="59.153271"
       y="122.09151"
       id="text3868"><tspan
         sodipodi:role="line"
         id="tspan3866"
         x="59.153271"
         y="125.83701"
         style="stroke-width:0.26458332;font-size:2.82222222px;" /></text>
    <text
       xml:space="preserve"
       style="font-style:normal;font-weight:normal;font-size:4.23333311px;line-height:1.25;font-family:sans-serif;letter-spacing:0px;word-spacing:0px;fill:#000000;fill-opacity:1;stroke:none;stroke-width:0.26458332"
       x="53.545223"
       y="125.49355"
       id="text3872"><tspan
         sodipodi:role="line"
         id="tspan3870"
         x="53.545223"
         y="125.49355"
         style="stroke-width:0.26458332">100</tspan></text>
    <text
       xml:space="preserve"
       style="font-style:normal;font-weight:normal;font-size:4.23333311px;line-height:1.25;font-family:sans-serif;letter-spacing:0px;word-spacing:0px;fill:#000000;fill-opacity:1;stroke:none;stroke-width:0.26458332"
       x="71.2742"
       y="125.50348"
       id="text3872-6"><tspan
         sodipodi:role="line"
         id="tspan3870-7"
         x="71.2742"
         y="125.50348"
         style="stroke-width:0.26458332">100</tspan></text>
    <text
       xml:space="preserve"
       style="font-style:normal;font-weight:normal;font-size:4.23333311px;line-height:1.25;font-family:sans-serif;letter-spacing:0px;word-spacing:0px;fill:#000000;fill-opacity:1;stroke:none;stroke-width:0.26458332"
       x="60.589577"
       y="148.30415"
       id="text3912"><tspan
         sodipodi:role="line"
         id="tspan3910"
         x="60.589577"
         y="148.30415"
         style="stroke-width:0.26458332">$70</tspan></text>
    <text
       xml:space="preserve"
       style="font-style:normal;font-weight:normal;font-size:4.23333311px;line-height:1.25;font-family:sans-serif;letter-spacing:0px;word-spacing:0px;fill:#000000;fill-opacity:1;stroke:none;stroke-width:0.26458332"
       x="40.745831"
       y="134.81039"
       id="text3916"><tspan
         sodipodi:role="line"
         id="tspan3914"
         x="40.745831"
         y="134.81039"
         style="stroke-width:0.26458332">gen1</tspan></text>
    <text
       xml:space="preserve"
       style="font-style:normal;font-weight:normal;font-size:4.23333311px;line-height:1.25;font-family:sans-serif;letter-spacing:0px;word-spacing:0px;fill:#000000;fill-opacity:1;stroke:none;stroke-width:0.26458332"
       x="78.316658"
       y="135.86873"
       id="text3926"><tspan
         sodipodi:role="line"
         id="tspan3924"
         x="78.316658"
         y="135.86873"
         style="stroke-width:0.26458332">load1</tspan></text>
    <text
       xml:space="preserve"
       style="font-style:normal;font-weight:normal;font-size:4.23333311px;line-height:1.25;font-family:sans-serif;letter-spacing:0px;word-spacing:0px;fill:#000000;fill-opacity:1;stroke:none;stroke-width:0.26458332"
       x="71.172913"
       y="148.03955"
       id="text3930"><tspan
         sodipodi:role="line"
         id="tspan3928"
         x="71.172913"
         y="148.03955"
         style="stroke-width:0.26458332">bus1</tspan></text>
  </g>
</svg>
